<svg width="25" height="25" viewBox="0 0 25 25" fill="none" xmlns="http://www.w3.org/2000/svg">
<path d="M17.5451 6.82067C16.2545 5.58974 14.5321 4.91915 12.75 4.94671C9.48893 4.94671 6.71933 7.14676 5.73181 10.1093V10.1093C5.2082 11.6618 5.2082 13.3428 5.73181 14.8953H5.73639C6.72849 17.8532 9.49351 20.0533 12.7546 20.0533C14.4379 20.0533 15.8831 19.6227 17.0032 18.8622V18.8591C18.3214 17.9864 19.2216 16.6131 19.5018 15.0607H12.75V10.2471H24.5404C24.6874 11.0831 24.7563 11.9374 24.7563 12.7871C24.7563 16.589 23.3975 19.8034 21.0334 21.9805L21.0359 21.9824C18.9644 23.8931 16.1213 25 12.75 25C8.02373 25 3.70167 22.336 1.57968 18.115V18.115C-0.19323 14.5829 -0.193225 10.4217 1.57969 6.8896H1.57972L1.57968 6.88957C3.70167 2.66396 8.02373 -1.21318e-05 12.75 -1.21318e-05C15.8549 -0.0367566 18.8542 1.12988 21.1139 3.25187L17.5451 6.82067Z" fill="white"/>
</svg>
